<svg height="512pt" viewBox="-41 0 512 512" width="512pt" xmlns="http://www.w3.org/2000/svg"><path d="m7.5 147.367188h414.667969v357.132812h-414.667969zm0 0" fill="#fff5cc"/><path d="m125.273438 258.722656h85.617187v48.804688h-85.617187v36.8125h85.617187v48.804687h-85.617187v36.8125h122.429687v-208.046875h-122.429687zm0 0" fill="#ffc477"/><path d="m327.582031 221.910156v16.925782h-24.402343v36.8125h24.402343v154.308593h36.8125v-208.046875zm0 0" fill="#ffc477"/><path d="m68.609375 90.136719c-10.042969 0-18.1875-8.140625-18.1875-18.1875v-46.261719c0-10.046875 8.144531-18.1875 18.1875-18.1875s18.1875 8.144531 18.1875 18.1875v46.261719c0 10.046875-8.140625 18.1875-18.1875 18.1875zm115.671875-18.1875v-46.261719c0-10.046875-8.140625-18.1875-18.183594-18.1875-10.046875 0-18.1875 8.144531-18.1875 18.1875v46.261719c0 10.046875 8.140625 18.1875 18.1875 18.1875 10.042969 0 18.183594-8.140625 18.183594-18.1875zm97.484375 0v-46.261719c0-10.046875-8.140625-18.1875-18.1875-18.1875-10.042969 0-18.183594 8.144531-18.183594 18.1875v46.261719c0 10.046875 8.140625 18.1875 18.183594 18.1875 10.046875 0 18.1875-8.140625 18.1875-18.1875zm97.488281 0v-46.261719c0-10.046875-8.144531-18.1875-18.1875-18.1875-10.046875 0-18.1875 8.144531-18.1875 18.1875v46.261719c0 10.046875 8.140625 18.1875 18.1875 18.1875 10.042969 0 18.1875-8.140625 18.1875-18.1875zm0 0" fill="#e0e0e2"/><path d="m379.253906 38v33.949219c0 10.046875-8.144531 18.1875-18.1875 18.1875-10.046875 0-18.1875-8.144531-18.1875-18.1875v-33.949219h-61.109375v33.949219c0 10.046875-8.144531 18.1875-18.1875 18.1875-10.046875 0-18.1875-8.144531-18.1875-18.1875v-33.949219h-61.109375v33.949219c0 10.046875-8.144531 18.1875-18.1875 18.1875-10.046875 0-18.1875-8.144531-18.1875-18.1875v-33.949219h-61.109375v33.949219c0 10.046875-8.144531 18.1875-18.1875 18.1875-10.046875 0-18.1875-8.144531-18.1875-18.1875v-33.949219h-42.925781v109.367188h414.667969v-109.367188zm0 0" fill="#ff3f62"/><path d="m95.273438 258.722656h85.617187v48.804688h-85.617187v36.8125h85.617187v48.804687h-85.617187v36.8125h122.429687v-208.046875h-122.429687zm0 0" fill="#787680"/><path d="m297.582031 221.910156v16.925782h-24.402343v36.8125h24.402343v154.308593h36.8125v-208.046875zm0 0" fill="#787680"/><path d="m334.394531 504.5v-87.773438h87.773438zm0 0" fill="#ffc477"/><path d="m422.167969 416.726562v87.773438h-87.773438zm0 0" fill="#fff5cc"/><path d="m7.5 147.367188h30v357.132812h-30zm0 0" fill="#ffc477"/><path d="m70.421875 71.949219v-46.261719c0-6.351562 3.257813-11.941406 8.1875-15.195312-2.867187-1.890626-6.304687-2.992188-10-2.992188-10.042969 0-18.1875 8.144531-18.1875 18.1875v46.261719c0 10.046875 8.144531 18.1875 18.1875 18.1875 3.695313 0 7.132813-1.101563 10-2.992188-4.929687-3.253906-8.1875-8.84375-8.1875-15.195312zm0 0" fill="#c6c5ca"/><path d="m167.90625 71.949219v-46.261719c0-6.351562 3.253906-11.941406 8.1875-15.195312-2.867188-1.890626-6.304688-2.992188-10-2.992188-10.042969 0-18.1875 8.144531-18.1875 18.1875v46.261719c0 10.046875 8.144531 18.1875 18.1875 18.1875 3.695312 0 7.132812-1.101563 10-2.992188-4.933594-3.253906-8.1875-8.84375-8.1875-15.195312zm0 0" fill="#c6c5ca"/><path d="m362.878906 71.949219v-46.261719c0-6.351562 3.253906-11.941406 8.1875-15.195312-2.871094-1.890626-6.308594-2.992188-10-2.992188-10.046875 0-18.1875 8.144531-18.1875 18.1875v46.261719c0 10.046875 8.140625 18.1875 18.1875 18.1875 3.691406 0 7.128906-1.101563 10-2.992188-4.933594-3.253906-8.1875-8.84375-8.1875-15.195312zm0 0" fill="#c6c5ca"/><path d="m265.394531 71.949219v-46.261719c0-6.351562 3.253907-11.941406 8.1875-15.195312-2.871093-1.890626-6.308593-2.992188-10-2.992188-10.046875 0-18.1875 8.144531-18.1875 18.1875v46.261719c0 10.046875 8.140625 18.1875 18.1875 18.1875 3.691407 0 7.128907-1.101563 10-2.992188-4.933593-3.253906-8.1875-8.84375-8.1875-15.195312zm0 0" fill="#c6c5ca"/><g fill="#c70024"><path d="m293.578125 90.136719c10.046875 0 18.1875-8.140625 18.1875-18.1875v-33.949219h-30v33.949219c0 3.820312-1.175781 7.363281-3.1875 10.289062 3.28125 4.769531 8.777344 7.898438 15 7.898438zm0 0"/><path d="m391.066406 90.136719c10.042969 0 18.1875-8.140625 18.1875-18.1875v-33.949219h-30v33.949219c0 3.820312-1.179687 7.363281-3.1875 10.289062 3.277344 4.769531 8.773438 7.898438 15 7.898438zm0 0"/><path d="m196.09375 90.136719c10.046875 0 18.1875-8.140625 18.1875-18.1875v-33.949219h-30v33.949219c0 3.820312-1.175781 7.363281-3.1875 10.289062 3.277344 4.769531 8.773438 7.898438 15 7.898438zm0 0"/><path d="m7.5 38h30v109.367188h-30zm0 0"/><path d="m98.609375 90.136719c10.046875 0 18.1875-8.140625 18.1875-18.1875v-33.949219h-30v33.949219c0 3.820312-1.175781 7.363281-3.1875 10.289062 3.28125 4.769531 8.773437 7.898438 15 7.898438zm0 0"/></g><path d="m95.273438 221.910156h30v36.8125h-30zm0 0" fill="#57565c"/><path d="m95.273438 393.144531h30v36.8125h-30zm0 0" fill="#57565c"/><path d="m95.273438 307.527344h30v36.8125h-30zm0 0" fill="#57565c"/><path d="m303.179688 275.648438v-36.8125h24.402343v-16.925782h-30v16.925782h-24.402343v36.8125h24.402343v154.308593h30v-154.308593zm0 0" fill="#57565c"/><path d="m422.167969 416.726562-87.773438 87.773438h30l57.773438-57.773438zm0 0" fill="#ffc477"/><path d="m414.667969 413.621094-83.382813 83.378906h-316.285156v-329.632812h-15v344.632812h429.667969v-344.632812h-15zm0 83.378906h-62.167969l62.167969-62.167969zm0 0"/><path d="m361.0625 97.636719c14.164062 0 25.691406-11.523438 25.691406-25.6875v-46.261719c0-14.164062-11.523437-25.6875-25.691406-25.6875-14.164062 0-25.6875 11.523438-25.6875 25.6875v46.261719c.003906 14.164062 11.523438 25.6875 25.6875 25.6875zm-10.683594-71.949219c0-5.890625 4.792969-10.6875 10.6875-10.6875 5.894532 0 10.6875 4.792969 10.6875 10.6875v46.261719c0 5.894531-4.792968 10.6875-10.6875 10.6875-5.894531 0-10.6875-4.792969-10.6875-10.6875zm0 0"/><path d="m263.578125 97.636719c14.164063 0 25.691406-11.523438 25.691406-25.6875v-46.261719c0-14.164062-11.527343-25.6875-25.691406-25.6875s-25.6875 11.523438-25.6875 25.6875v46.261719c.003906 14.164062 11.523437 25.6875 25.6875 25.6875zm-10.683594-71.949219c0-5.890625 4.792969-10.6875 10.6875-10.6875s10.6875 4.792969 10.6875 10.6875v46.261719c0 5.894531-4.792969 10.6875-10.6875 10.6875s-10.6875-4.792969-10.6875-10.6875zm0 0"/><path d="m68.609375 97.636719c14.164063 0 25.6875-11.523438 25.6875-25.6875v-46.261719c0-14.164062-11.523437-25.6875-25.6875-25.6875s-25.6875 11.523438-25.6875 25.6875v46.261719c0 14.164062 11.523437 25.6875 25.6875 25.6875zm-10.6875-71.949219c0-5.890625 4.796875-10.6875 10.6875-10.6875 5.894531 0 10.691406 4.792969 10.691406 10.6875v46.261719c0 5.894531-4.796875 10.6875-10.691406 10.6875-5.890625 0-10.6875-4.792969-10.6875-10.6875zm0 0"/><path d="m166.09375 97.636719c14.164062 0 25.6875-11.523438 25.6875-25.6875v-46.261719c0-14.164062-11.523438-25.6875-25.6875-25.6875s-25.6875 11.523438-25.6875 25.6875v46.261719c0 14.164062 11.523438 25.6875 25.6875 25.6875zm-10.6875-71.949219c0-5.890625 4.792969-10.6875 10.6875-10.6875s10.6875 4.792969 10.6875 10.6875v46.261719c0 5.894531-4.792969 10.6875-10.6875 10.6875s-10.6875-4.792969-10.6875-10.6875zm0 0"/><path d="m87.773438 385.644531v51.8125h137.429687v-223.046875h-137.429687v51.8125h85.617187v33.804688h-85.617187v51.8125h85.617187v33.804687zm15-48.804687v-21.8125h85.617187v-63.804688h-85.617187v-21.8125h107.429687v193.046875h-107.429687v-21.8125h85.617187v-63.800781h-85.617187zm0 0"/><path d="m290.082031 214.410156v16.925782h-24.402343v51.8125h24.402343v154.308593h36.8125v42.042969h15v-55.273438h55.273438v-15h-55.273438v-194.816406zm15 208.046875v-154.308593h-24.402343v-21.8125h24.402343v-16.925782h21.8125v193.046875zm0 0"/><path d="m399.253906 30.5v15h15.414063v94.367188h-399.667969v-94.367188h15.421875v-15h-30.421875v124.367188h429.667969v-124.367188zm0 0"/><path d="m106.796875 30.5h21.109375v15h-21.109375zm0 0"/><path d="m204.28125 30.5h21.109375v15h-21.109375zm0 0"/><path d="m301.769531 30.5h21.109375v15h-21.109375zm0 0"/><path d="m396.433594 128.320312h-82.855469v-15h82.855469zm-92.855469 0h-15v-15h15zm-25 0h-15v-15h15zm0 0" fill="#fff"/><path d="m403.117188 331.390625h-15v-102.972656h15zm0-112.972656h-15v-15h15zm0-25h-15v-15h15zm0 0" fill="#fff"/></svg>