<svg id="Capa_1" enable-background="new 0 0 512 512" height="512" viewBox="0 0 512 512" width="512" xmlns="http://www.w3.org/2000/svg"><g><g><path d="m222.359 380.517c-2.149 3.712-3.579 7.062-3.579 9.411 0 9.532 21.114 16.284 37.22 16.284s37.22-6.752 37.22-16.284c0-2.349-1.43-5.698-3.579-9.411z" fill="#ff9a9f"/><path d="m289.641 380.517c-6.574-11.354-19.912-26.114-19.912-26.114h-27.457s-13.338 14.76-19.912 26.114c6.706 5.906 21.578 9.695 33.641 9.695s26.933-3.788 33.64-9.695z" fill="#ff8086"/><path d="m347.612 7.5c-38.109 0-71.714 19.272-91.612 48.598-19.898-29.326-53.503-48.598-91.612-48.598-27.725 0-53.066 10.199-72.481 27.048-14.512 18.741-30.155 45.821-30.155 83.587 0 113.573 145.471 229.254 194.248 229.254 26.377 0 82.819-32.807 131.561-74.086 39.147-42.365 70.687-97.135 70.687-155.167 0-61.103-49.533-110.636-110.636-110.636z" fill="#ffb3b7"/><path d="m68.752 118.135c0-37.766 8.643-64.846 23.155-83.587-23.373 20.285-38.155 50.21-38.155 83.587 0 126.907 150.805 238.254 202.248 238.254 27.919 0 85.099-32.805 131.561-83.086-48.742 41.279-105.184 66.086-131.561 66.086-48.776 0-187.248-107.68-187.248-221.254z" fill="#ff9a9f"/></g><g><path d="m371.81 512c-40.625 0-78.492-19.261-101.269-47.361-2.754 1.492-5.501 2.99-8.247 4.488-38.648 21.077-78.613 42.873-128.65 42.873-45.309 0-84.035-31.948-86.328-71.218-.241-4.136 2.915-7.684 7.05-7.925 4.135-.249 7.683 2.914 7.924 7.05.841 14.405 8.63 28.79 21.37 39.465 13.567 11.368 31.318 17.628 49.984 17.628 46.212 0 82.767-19.936 121.468-41.042 2.247-1.226 4.496-2.452 6.747-3.675-7.244-12.035-11.849-25.234-13.047-38.937-17.171-1.687-37.531-9.247-37.531-23.419 0-7.886 8.647-20.526 17.923-31.815-22.212-8.226-49.333-24.771-75.485-46.626-3.178-2.656-3.602-7.386-.945-10.564 2.655-3.179 7.386-3.603 10.564-.945 28.191 23.558 69.213 48.913 92.664 48.913 22.163 0 71.289-25.946 115.138-69.366 29.732-29.441 79.61-89.558 79.61-161.388 0-23.534-8.133-46.55-22.901-64.808-2.604-3.221-2.105-7.943 1.115-10.548s7.943-2.106 10.548 1.114c16.92 20.919 26.238 47.285 26.238 74.241 0 77.274-52.664 140.961-84.056 172.046-32.093 31.779-69.572 57.074-98.889 67.94 9.268 11.282 17.917 23.924 17.917 31.806 0 13.983-19.82 21.529-36.841 23.349 2.184 20.395 13.743 40.621 32.345 56.254 20.768 17.458 48.318 27.47 75.584 27.47 32.362 0 51.683-13.611 51.683-36.409 0-5.813-3.672-14.519-13.979-21.519-9.466-6.429-37.209-19.112-90.254 1.923-5.17 2.051-10.396 4.308-15.976 6.901-3.757 1.742-8.216.115-9.962-3.641-1.746-3.757-.116-8.217 3.64-9.963 5.844-2.716 11.329-5.084 16.769-7.241 57.563-22.827 90-10.041 104.211-.388 12.869 8.74 20.551 21.423 20.551 33.927 0 24.853-17.518 51.41-66.683 51.41zm-145.505-122.203c1.546 3.139 14.76 8.915 29.695 8.915 14.957 0 28.187-5.794 29.702-8.929-.489-3.339-7.453-14.089-18.664-27.079-3.949.781-7.645 1.186-11.039 1.186-3.376 0-7.068-.405-11.029-1.19-9.117 10.6-18.004 22.821-18.665 27.097zm-90.721-97.444c-1.907 0-3.814-.723-5.277-2.171-31.392-31.085-84.055-94.772-84.055-172.046 0-65.141 52.996-118.136 118.136-118.136 35.725 0 69.26 16.107 91.612 43.548 22.352-27.441 55.888-43.548 91.612-43.548 24.341 0 47.716 7.345 67.598 21.24 3.395 2.373 4.224 7.049 1.851 10.444-2.374 3.395-7.05 4.222-10.444 1.851-17.349-12.126-37.753-18.535-59.005-18.535-34.229 0-66.156 16.938-85.406 45.309-1.396 2.058-3.72 3.289-6.206 3.289s-4.811-1.231-6.206-3.289c-19.25-28.371-51.177-45.309-85.406-45.309-56.869 0-103.136 46.267-103.136 103.136 0 71.83 49.878 131.946 79.61 161.388 2.943 2.914 2.966 7.663.052 10.606-1.466 1.48-3.398 2.223-5.33 2.223zm236.756-78.105c-.852 0-1.718-.146-2.564-.454-3.893-1.417-5.899-5.721-4.483-9.613l9.393-25.806c.039-.105.08-.21.123-.314 3.884-9.34 3.653-13.684 2.775-15.682-.261-.595-1.056-2.404-5.502-4.022-6.739-2.454-11.75.667-14.886 9.278l-.791 2.158c-.241.684-.496 1.378-.762 2.08l-.999 2.729c-.007.02-.014.038-.021.058l-8.239 22.639c-1.417 3.892-5.723 5.896-9.613 4.482-3.893-1.417-5.899-5.721-4.483-9.613l9.141-25.115c.016-.042.031-.084.047-.126.038-.098.075-.195.112-.292l.7-1.913c.146-.414.285-.822.417-1.223 4.764-14.395.24-16.042-3.064-17.244-3.062-1.117-6.047-.783-8.874.983-3.415 2.135-6.371 6.263-8.321 11.623-.031.083-.063.166-.096.248l-9.462 25.999c-1.417 3.891-5.724 5.894-9.613 4.482-3.893-1.417-5.899-5.721-4.483-9.613l18.475-50.76c1.417-3.892 5.721-5.897 9.613-4.482 2.785 1.014 4.605 3.506 4.896 6.268 4.276-.783 8.7-.406 12.996 1.156 5.398 1.965 10.876 5.618 13.429 12.391 5.646-2.568 12.184-2.772 19.01-.288 6.949 2.529 11.695 6.596 14.106 12.087 3.058 6.962 2.234 15.645-2.593 27.313l-9.336 25.65c-1.108 3.044-3.984 4.936-7.048 4.936zm-232.576-.215c-3.063 0-5.939-1.892-7.048-4.937l-18.475-50.759c-1.417-3.893.59-8.196 4.483-9.613 2.783-1.013 5.78-.275 7.778 1.653 2.773-3.347 6.404-5.904 10.7-7.467 5.396-1.965 11.942-2.688 18.25.859 2.675-5.598 7.552-9.956 14.378-12.44 6.948-2.528 13.197-2.465 18.574.191 6.818 3.367 11.769 10.549 15.572 22.592l9.335 25.648c1.417 3.893-.59 8.196-4.483 9.613-3.892 1.411-8.196-.591-9.613-4.482l-9.392-25.805c-.038-.106-.074-.213-.108-.32-3.029-9.652-5.998-12.831-7.955-13.798-.583-.288-2.354-1.164-6.8.456-6.742 2.454-8.572 8.064-5.439 16.677l.783 2.165c.256.684.51 1.385.76 2.101l.981 2.711c.001.004.002.007.003.01l8.257 22.687c1.417 3.893-.59 8.196-4.483 9.613-3.892 1.414-8.196-.591-9.613-4.482l-9.141-25.115c-.015-.042-.03-.084-.044-.125-.032-.094-.064-.187-.097-.28l-.699-1.932c-.155-.413-.311-.815-.467-1.207-5.603-14.088-10.128-12.442-13.431-11.24-3.062 1.114-5.136 3.286-6.166 6.457-1.244 3.831-.855 8.893 1.096 14.252.03.083.059.166.085.249l9.464 26.001c1.417 3.893-.59 8.196-4.483 9.613-.845.308-1.711.454-2.562.454zm116.195-23.525c-19.028 0-34.508-15.48-34.508-34.508s15.48-34.508 34.508-34.508 34.508 15.48 34.508 34.508-15.48 34.508-34.508 34.508zm0-54.016c-10.757 0-19.508 8.751-19.508 19.508s8.751 19.508 19.508 19.508 19.508-8.751 19.508-19.508-8.751-19.508-19.508-19.508z"/></g></g></svg>