<svg id="Capa_1" enable-background="new 0 0 512.002 512.002" height="512" viewBox="0 0 512.002 512.002" width="512" xmlns="http://www.w3.org/2000/svg"><g><path d="m251.001 262.5v75c24.853 0 45-20.147 45-45z" fill="#4f4f4f"/><path d="m266.001 292.5v-30l-60 30c0 24.853 20.147 45 45 45 8.284 0 15-20.147 15-45z" fill="#696969"/><path d="m291.001 172.5h-30l-25 90 30 30h30v-30c8.964-4.993 15-14.315 15-25v-45c0-11.046-8.955-20-20-20z" fill="#ffd9d4"/><path d="m281.001 237.5v-45c0-11.046-8.955-20-20-20h-50c-11.046 0-20 8.954-20 20v45c0 10.685 6.036 20.007 15 25v30h60v-30c8.964-4.993 15-14.315 15-25z" fill="#fff0d3"/><path d="m116.001 387.5 15 60c16.569 0 30-13.432 30-30v-15z" fill="#ffd9d4"/><path d="m101.001 402.5v15c0 16.568 13.431 30 30 30v-60z" fill="#fff"/><path d="m131.001 352.5h10c11.046 0 20 8.954 20 20v30h-30l-15-25z" fill="#ff8d7e"/><path d="m131.001 352.5h-10c-11.046 0-20 8.954-20 20v30h30z" fill="#ffb4a9"/><path d="m131.001 262.5-15 30 15 30c16.569 0 30-13.431 30-30s-13.432-30-30-30z" fill="#ff8d7e"/><path d="m101.001 292.5c0 16.569 13.431 30 30 30v-60c-16.569 0-30 13.431-30 30z" fill="#ffb4a9"/><path d="m258.501 7.5c-13.87 0-25.973 7.537-32.46 18.732-1.577-.563-3.269-.886-5.04-.886-8.284 0-15 6.716-15 15v56.988h90v-52.334c0-20.71-16.789-37.5-37.5-37.5z" fill="#85453d"/><path d="m251.001 52.5v90c24.853 0 45-20.147 45-45s-20.147-45-45-45z" fill="#ff8d7e"/><path d="m266.001 97.5c0-24.853-6.716-45-15-45-24.853 0-45 20.147-45 45s20.147 45 45 45c8.284 0 15-20.147 15-45z" fill="#ffb4a9"/><path d="m461.001 292.5h-30l-30-60 30-60h30z" fill="#ebebeb"/><path d="m341.001 172.5h90v120h-90z" fill="#fff"/><circle cx="433.626" cy="202.5" fill="#ff4128" r="7.5"/><circle cx="433.626" cy="232.5" fill="#ff4128" r="7.5"/><path d="m131.001 255c-20.678 0-37.5 16.822-37.5 37.5s16.822 37.5 37.5 37.5 37.5-16.822 37.5-37.5-16.822-37.5-37.5-37.5zm0 60c-12.407 0-22.5-10.094-22.5-22.5s10.093-22.5 22.5-22.5 22.5 10.094 22.5 22.5-10.093 22.5-22.5 22.5z"/><path d="m141.001 345h-20c-12.392 0-22.892 8.241-26.318 19.528-20.449-3.061-36.182-20.74-36.182-42.028 0-4.143-3.358-7.5-7.5-7.5s-7.5 3.357-7.5 7.5c0 29.163 21.828 53.306 50 56.995v125.005c0 4.143 3.358 7.5 7.5 7.5s7.5-3.357 7.5-7.5v-57.021c6.272 4.719 14.064 7.521 22.5 7.521s16.228-2.801 22.5-7.521v57.021c0 4.143 3.358 7.5 7.5 7.5s7.5-3.357 7.5-7.5v-132c0-15.163-12.336-27.5-27.5-27.5zm12.5 72.5c0 12.406-10.093 22.5-22.5 22.5s-22.5-10.094-22.5-22.5v-7.5h45zm0-22.5h-45v-22.5c0-6.893 5.607-12.5 12.5-12.5h20c6.893 0 12.5 5.607 12.5 12.5z"/><path d="m313.373 497.385-24.872-8.29v-159.903c9.27-9.472 15-22.423 15-36.692v-25.91c9.35-6.819 15-17.604 15-29.09v-45c0-15.163-12.336-27.5-27.5-27.5h-80c-12.465 0-23.013 8.339-26.375 19.729-42.52-3.268-76.125-38.886-76.125-82.229 0-4.143-3.358-7.5-7.5-7.5s-7.5 3.357-7.5 7.5c0 51.239 39.729 93.372 90 97.214v37.786c0 11.485 5.65 22.271 15 29.09v25.91c0 14.269 5.73 27.22 15 36.692v159.903l-24.872 8.29c-3.93 1.31-6.053 5.558-4.744 9.487 1.048 3.143 3.974 5.13 7.114 5.13.786 0 1.586-.125 2.373-.387l30-10c3.063-1.021 5.128-3.887 5.128-7.115v-154.576c6.824 3.251 14.452 5.076 22.5 5.076s15.676-1.825 22.5-5.076v154.576c0 3.229 2.066 6.095 5.128 7.115l30 10c.787.262 1.586.387 2.373.387 3.14 0 6.066-1.987 7.114-5.13 1.311-3.93-.813-8.178-4.742-9.487zm-103.723-241.438c-6.877-3.829-11.149-10.898-11.149-18.447v-45c0-6.893 5.607-12.5 12.5-12.5h80c6.893 0 12.5 5.607 12.5 12.5v45c0 7.549-4.272 14.618-11.149 18.447-2.377 1.324-3.851 3.832-3.851 6.553v22.5h-75v-22.5c0-2.721-1.474-5.229-3.851-6.553zm41.351 74.053c-18.11 0-33.261-12.904-36.745-30h73.491c-3.485 17.096-18.636 30-36.746 30z"/><path d="m251.001 150c28.949 0 52.5-23.552 52.5-52.5v-52.5c0-24.813-20.187-45-45-45-14.153 0-27.471 6.745-35.914 17.902-.528-.037-1.057-.057-1.586-.057-12.407 0-22.5 10.094-22.5 22.5v57.155c0 28.948 23.551 52.5 52.5 52.5zm-37.5-109.654c0-4.136 3.364-7.5 7.5-7.5.835 0 1.681.151 2.516.449 3.408 1.218 7.199-.171 9.013-3.303 5.358-9.247 15.31-14.992 25.971-14.992 16.542 0 30 13.458 30 30v15.808c-9.537-9.745-22.821-15.808-37.5-15.808s-27.963 6.063-37.5 15.808zm37.5 19.654c20.678 0 37.5 16.822 37.5 37.5s-16.822 37.5-37.5 37.5-37.5-16.822-37.5-37.5 16.822-37.5 37.5-37.5z"/><circle cx="373.626" cy="202.5" r="7.5"/><circle cx="403.626" cy="202.5" r="7.5"/><circle cx="373.626" cy="232.5" r="7.5"/><circle cx="403.626" cy="232.5" r="7.5"/><circle cx="373.626" cy="262.5" r="7.5"/><circle cx="403.626" cy="262.5" r="7.5"/><path d="m461.001 165h-7.5v-7.5c0-4.143-3.358-7.5-7.5-7.5s-7.5 3.357-7.5 7.5v7.5h-15v-7.5c0-4.143-3.358-7.5-7.5-7.5s-7.5 3.357-7.5 7.5v7.5h-15v-7.5c0-4.143-3.358-7.5-7.5-7.5s-7.5 3.357-7.5 7.5v7.5h-15v-7.5c0-4.143-3.358-7.5-7.5-7.5s-7.5 3.357-7.5 7.5v7.5h-7.5c-4.142 0-7.5 3.357-7.5 7.5v120c0 4.143 3.358 7.5 7.5 7.5h120c4.142 0 7.5-3.357 7.5-7.5v-120c0-4.143-3.358-7.5-7.5-7.5zm-7.5 120h-105v-105h105z"/></g></svg>