<svg id="Capa_1" enable-background="new 0 0 512.039 512.039" height="512" viewBox="0 0 512.039 512.039" width="512" xmlns="http://www.w3.org/2000/svg"><g><path d="m166.019 151c-41.353 0-75 33.647-75 75l120 15 .117-74.912c-13.08-9.873-28.681-15.088-45.117-15.088z" fill="#b7e65c"/><path d="m331.019 211c0 6-.601 11.7-1.5 17.399h-147c-.899-5.698-1.5-11.398-1.5-17.399 0-49.501 33.6-90 75-90s75 40.499 75 90z" fill="#96a0ff"/><g><path d="m191.519 61 64.501 103.2 64.5-103.2z" fill="#96a0ff"/></g><path d="m346.019 151c-16.436 0-32.036 5.215-45.117 15.088l.117 74.912 120-15c0-41.353-33.647-75-75-75z" fill="#97d957"/><g><path d="m481.019 226h-30c0-107.401-87.599-196-195-196s-195 88.599-195 196h-30c0-124.2 100.8-226 225-226s225 101.8 225 226z" fill="#475f8a"/></g><path d="m320.52 61-64.501 103.2v-103.2z" fill="#8288ff"/><path d="m481.019 226h-30c0-107.401-87.599-196-195-196v-30c124.201 0 225 101.8 225 226z" fill="#2e4772"/><path d="m331.019 211c0 6-.601 11.7-1.5 17.399h-73.5v-107.399c41.401 0 75 40.499 75 90z" fill="#8288ff"/><g><path d="m481.019 211h-450c-2.701 4.499-31 48.3-31 120 0 112.5 79.6 202.599 166 176.499 20.099 6 39.901 6 60 0 10.201 3.001 20.099 4.501 30 4.501s19.799-1.5 30-4.501c20.099 6 39.901 6 60 0 10.201 3.001 20.099 4.501 30 4.501 74.399 0 136-81.7 136-181 0-71.4-28.299-115.8-31-120z" fill="#ffbe40"/></g><path d="m512.019 331c0 99.3-61.601 181-136 181-9.901 0-19.799-1.5-30-4.501-20.099 6-39.901 6-60 0-10.201 3.001-20.099 4.501-30 4.501v-301h225c2.701 4.2 31 48.6 31 120z" fill="#ff9f40"/><path d="m391.019 331v15c0 67.2-58.2 99.6-120 104.099v-29.099h-30v29.099c-61.8-4.499-120-36.899-120-104.099v-15h60v30h30v-30h90v30h30v-30z" fill="#ff7f40"/><g><path d="m299.803 263.501h77.433v29.998h-77.433z" fill="#f25a3c" transform="matrix(.949 -.316 .316 .949 -70.649 121.215)"/></g><g><path d="m158.52 239.784h29.998v77.433h-29.998z" fill="#ff7f40" transform="matrix(.316 -.949 .949 .316 -145.551 355.084)"/></g><path d="m331.019 331h60v15c0 67.2-58.2 99.6-120 104.099v-29.099h-15v-90h45v30h30z" fill="#f25a3c"/></g></svg>