<svg height="512" viewBox="0 0 64 64" width="512" xmlns="http://www.w3.org/2000/svg"><g id="Christmas"><path d="m45 54h14v7h-14z" fill="#d80027"/><path d="m26 52h14v9h-14z" fill="#ffcd00"/><path d="m5 47h18v14h-18z" fill="#7ed63e"/><path d="m29 37h6v7h-6z" fill="#754c29"/><path d="m38.48 25.41h-.023a18.078 18.078 0 0 1 -12.914 0h-.023l-7.52 8.59 2.09 1.2a24.041 24.041 0 0 0 23.82 0l2.09-1.2z" fill="#4e901e"/><path d="m36.763 16.134a18.01 18.01 0 0 1 -9.526 0l-5.237 7.866 3.31 1.33a18.09 18.09 0 0 0 13.38 0l3.31-1.33z" fill="#7ed63e"/><path d="m38.69 27.33 1.088-.437-1.3-1.483h-.023a18.078 18.078 0 0 1 -12.914 0h-.021l-1.3 1.483 1.088.437a18.09 18.09 0 0 0 13.382 0z" fill="#5eac24"/><path d="m43 50h18v4h-18z" fill="#c2fb3b"/><path d="m26 52h14v2h-14z" fill="#ddb200"/><path d="m23 48h20v4h-20z" fill="#ed1c24"/><path d="m45 54h14v2h-14z" fill="#ab2300"/><path d="m5 47h18v2h-18z" fill="#5eac24"/><path d="m3 43h22v4h-22z" fill="#ffcd00"/><path d="m32 3-8 12 1.68.63q.77.288 1.557.5a18.01 18.01 0 0 0 9.526 0q.786-.216 1.557-.5l1.68-.63z" fill="#91dc5a"/><path d="m36.763 18.134c.369-.1.732-.23 1.095-.355l-1.095-1.645a18.01 18.01 0 0 1 -9.526 0l-1.095 1.645c.363.125.726.254 1.095.355a18.01 18.01 0 0 0 9.526 0z" fill="#5eac24"/><path d="m31 48h4v13h-4z" fill="#ee8700"/><path d="m35 48h1a3 3 0 1 0 -3-3v3z" fill="#ff9811"/><path d="m33 48v-3a3 3 0 1 0 -3 3z" fill="#ff9811"/><path d="m12 43h4v18h-4z" fill="#d80027"/><path d="m16 43h1a3 3 0 1 0 -3-3v3z" fill="#ed1c24"/><path d="m14 43v-3a3 3 0 1 0 -3 3z" fill="#ed1c24"/><path d="m50 50h4v11h-4z" fill="#ebbf00"/><path d="m53.643 50h.857a2.5 2.5 0 1 0 -2.5-2.5v2.5z" fill="#ffcd00"/><path d="m52 50v-2.5a2.5 2.5 0 1 0 -2.5 2.5z" fill="#ffcd00"/><path d="m49.649 23.764-1.453 4.472 3.804-2.764 3.804 2.764-1.453-4.472 3.804-2.764h-4.702l-1.453-4.472-1.453 4.472h-4.702z" fill="#ffcd00"/><path d="m16.453 8-1.453-4.472-1.453 4.472h-4.702l3.804 2.764-1.453 4.472 3.804-2.764 3.804 2.764-1.453-4.472 3.804-2.764z" fill="#ff9811"/><g fill="#231f20"><path d="m13 24h2v2h-2z"/><path d="m15 26h2v2h-2z"/><path d="m13 28h2v2h-2z"/><path d="m11 26h2v2h-2z"/><path d="m61 49h-3.351a3.464 3.464 0 0 0 .351-1.5 3.495 3.495 0 0 0 -6-2.442 3.487 3.487 0 0 0 -5.649 3.942h-2.351v-1a1 1 0 0 0 -1-1h-3.556a3.959 3.959 0 0 0 .556-2 4 4 0 0 0 -4-4v-1.989a24.92 24.92 0 0 0 8.408-2.944l2.09-1.2a1 1 0 0 0 .254-1.526l-6.588-7.525 2.209-.888a1 1 0 0 0 .459-1.482l-4.506-6.767c.115-.041.232-.07.346-.113l1.68-.629a1 1 0 0 0 .48-1.492l-8-12a1.039 1.039 0 0 0 -1.664 0l-8 12a1 1 0 0 0 .481 1.492l1.68.629c.113.043.23.072.345.112l-4.507 6.768a1 1 0 0 0 .46 1.482l2.209.887-6.588 7.526a1 1 0 0 0 .254 1.526l2.092 1.2a24.913 24.913 0 0 0 8.406 2.944v2.545a3.936 3.936 0 0 0 -1.444 5.444h-.556v-4a1 1 0 0 0 -1-1h-4.556a3.959 3.959 0 0 0 .556-2 3.983 3.983 0 0 0 -7-2.618 3.979 3.979 0 0 0 -6.444 4.618h-4.556a1 1 0 0 0 -1 1v4a1 1 0 0 0 1 1h1v13a1 1 0 0 0 1 1h18a1 1 0 0 0 1-1v-8h1v8a1 1 0 0 0 1 1h14a1 1 0 0 0 1-1v-8h1v1a1 1 0 0 0 1 1h1v6a1 1 0 0 0 1 1h14a1 1 0 0 0 1-1v-6h1a1 1 0 0 0 1-1v-4a1 1 0 0 0 -1-1zm-6.5-3a1.5 1.5 0 0 1 0 3h-1.5v-1.5a1.5 1.5 0 0 1 1.5-1.5zm-6.5 1.5a1.5 1.5 0 0 1 3 0v1.5h-1.5a1.5 1.5 0 0 1 -1.5-1.5zm1 3.5v2h-5v-2zm-11-6a2 2 0 0 1 -2 2h-2v-2a2 2 0 0 1 4 0zm-6-40.2 6.469 9.7-.5.187a16.98 16.98 0 0 1 -11.938 0l-.5-.187zm-4.312 12.461a19 19 0 0 0 4.312.515 18.991 18.991 0 0 0 4.312-.515l4.174 6.27-2.165.87a17.044 17.044 0 0 1 -12.638 0l-2.169-.871zm-8.132 16.48 6.28-7.174a18.621 18.621 0 0 0 12.329 0l6.278 7.174-1.028.591a23.133 23.133 0 0 1 -22.827 0zm10.444 5.513c.666.053 1.332.088 2 .088s1.334-.036 2-.088v2.3a4 4 0 0 0 -1 .826 3.975 3.975 0 0 0 -3-1.38zm-2 5.746a2 2 0 0 1 4 0v2h-2a2 2 0 0 1 -2-2zm-4 1h-7v-2h7zm-7-8a2 2 0 0 1 0 4h-2v-2a2 2 0 0 1 2-2zm-8 2a2 2 0 0 1 4 0v2h-2a2 2 0 0 1 -2-2zm-5 4h7v2h-7zm2 4h5v12h-5zm7 12v-16h2v16zm9 0h-5v-12h5zm2-11h6v2h-6zm3 4h3v7h-3zm5 7v-11h2v11zm7 0h-3v-7h3zm-3-9v-2h6v2zm10 4h3v5h-3zm5 5v-9h2v9zm7 0h-3v-5h3zm2-7h-5v-2h5z"/><path d="m48.473 24.146-1.229 3.781a1 1 0 0 0 1.539 1.118l3.217-2.337 3.217 2.337a1 1 0 0 0 1.539-1.118l-1.229-3.781 3.216-2.337a1 1 0 0 0 -.588-1.809h-3.975l-1.229-3.781a1 1 0 0 0 -1.9 0l-1.231 3.781h-3.975a1 1 0 0 0 -.588 1.809zm2.074-2.146a1 1 0 0 0 .951-.691l.5-1.545.5 1.545a1 1 0 0 0 .951.691h1.625l-1.314.955a1 1 0 0 0 -.364 1.118l.5 1.545-1.314-.955a1 1 0 0 0 -1.176 0l-1.314.955.5-1.545a1 1 0 0 0 -.364-1.118l-1.306-.955z"/><path d="m11.473 11.146-1.228 3.781a1 1 0 0 0 1.539 1.118l3.216-2.337 3.216 2.337a1 1 0 0 0 1.539-1.118l-1.228-3.781 3.216-2.337a1 1 0 0 0 -.588-1.809h-3.975l-1.229-3.781a1 1 0 0 0 -1.9 0l-1.231 3.781h-3.975a1 1 0 0 0 -.588 1.809zm2.074-2.146a1 1 0 0 0 .951-.691l.502-1.545.5 1.545a1 1 0 0 0 .953.691h1.625l-1.315.955a1 1 0 0 0 -.363 1.118l.5 1.545-1.314-.955a1 1 0 0 0 -1.176 0l-1.314.955.5-1.545a1 1 0 0 0 -.363-1.118l-1.311-.955z"/><path d="m47 5h2v2h-2z"/><path d="m49 7h2v2h-2z"/><path d="m47 9h2v2h-2z"/><path d="m45 7h2v2h-2z"/><path d="m51 35h2v2h-2z"/><path d="m53 37h2v2h-2z"/><path d="m51 39h2v2h-2z"/><path d="m49 37h2v2h-2z"/><path d="m24 31h2v2h-2z"/><path d="m37 32h2v2h-2z"/><path d="m30 34h2v2h-2z"/><path d="m29 30h2v2h-2z"/><path d="m34 19h2v2h-2z"/><path d="m32 22h2v2h-2z"/><path d="m28 20h2v2h-2z"/><path d="m29 12h2v2h-2z"/><path d="m32 9h2v2h-2z"/><path d="m34 29h2v2h-2z"/></g></g></svg>