<svg id="Capa_1" enable-background="new 0 0 512 512" height="512" viewBox="0 0 512 512" width="512" xmlns="http://www.w3.org/2000/svg"><g><g><path clip-rule="evenodd" d="m378 460.846 24.066-163.956-24.066-127.928c-29.933-2.353-59.498-10.375-86.936-24.066-27.467-13.691-57.032-21.713-86.965-24.066l-17.007 158.032 17.007 133.852c29.933 2.353 59.498 10.375 86.965 24.066 27.438 13.691 57.003 21.714 86.936 24.066z" fill="#f9f7f8" fill-rule="evenodd"/></g><g><path clip-rule="evenodd" d="m502.013 417.788v-259.796c0-10.205.142-12.983-11.565-8.079-31.52 13.238-61.992 19.729-93.91 19.758-6.179 0-12.359-.227-18.538-.709v291.884c6.179.482 12.359.709 18.538.709 31.152 0 65.28-9.411 94.165-19.446 10.8-3.742 11.31-10.034 11.31-24.321z" fill="#eb5468" fill-rule="evenodd"/></g><g><path clip-rule="evenodd" d="m33.996 62.946 23.527 11.339 23.555-11.339c5.669-5.896 9.184-13.89 9.184-22.734 0-17.858-14.343-32.4-32.116-32.712h-1.219c-17.801.312-32.115 14.854-32.115 32.712 0 8.844 3.486 16.838 9.184 22.734z" fill="#ffd772" fill-rule="evenodd"/></g><g><path clip-rule="evenodd" d="m490.703 442.109c10.8-3.742 11.31-10.035 11.31-24.321v-246.785c0-3.543 0-6.18-.454-7.909-6.207 55.644-54.027 110.183-123.559 149.812v147.941c6.179.482 12.359.709 18.538.709 31.152-.001 65.281-9.412 94.165-19.447z" fill="#e5384f" fill-rule="evenodd"/></g><g><path clip-rule="evenodd" d="m291.064 436.78c27.439 13.691 57.003 21.713 86.936 24.066v-147.94c-28.346 16.158-60.348 29.849-94.562 40.082-25.398 7.625-52.043 13.323-79.34 16.781v42.945c29.934 2.353 59.499 10.375 86.966 24.066z" fill="#dddaec" fill-rule="evenodd"/></g><g><path clip-rule="evenodd" d="m81.078 62.946c5.669-5.896 9.184-13.89 9.184-22.734 0-17.858-14.343-32.4-32.116-32.712h-1.219c-3.94.057-7.682.822-11.168 2.183 12.245 4.706 20.948 16.611 20.948 30.529 0 8.844-3.487 16.838-9.184 22.734h5.499z" fill="#fbba58" fill-rule="evenodd"/></g><g><path clip-rule="evenodd" d="m204.099 412.714v-291.885c-6.179-.482-12.359-.709-18.538-.709-36.169 0-72.338 8.249-105.475 24.775l-11.763 157.352 11.763 134.533c33.136-16.526 69.305-24.775 105.475-24.775 6.179 0 12.358.227 18.538.709z" fill="#7fdbae" fill-rule="evenodd"/></g><g><path clip-rule="evenodd" d="m80.086 436.78c33.136-16.526 69.305-24.775 105.475-24.775 6.179 0 12.359.227 18.538.709v-42.945c-1.105.142-2.239.283-3.345.425-43.851 5.216-84.726 4.054-120.668-2.466z" fill="#3bc3a4" fill-rule="evenodd"/></g><g><path clip-rule="evenodd" d="m80.086 436.78v-291.884-44.901l-22.988-11.339-22.138 11.339v404.505h45.126z" fill="#ffd772" fill-rule="evenodd"/></g><g><path clip-rule="evenodd" d="m80.086 354.717v-209.821-44.901h-3.231-20.296v44.901 291.884 67.72h23.527v-67.72z" fill="#fbba58" fill-rule="evenodd"/></g><g><path clip-rule="evenodd" d="m100.41 99.995c2.579 0 4.677-2.098 4.677-4.677v-13.862c0-10.176-8.334-18.51-18.538-18.51h-5.471-47.082-5.499c-10.176 0-18.51 8.334-18.51 18.51v13.861c0 2.58 2.098 4.677 4.677 4.677 28.573.001 57.145.001 85.746.001z" fill="#ea9a58" fill-rule="evenodd"/></g><g><path clip-rule="evenodd" d="m81.362 99.995h19.048c2.579 0 4.677-2.098 4.677-4.677v-13.862c0-10.176-8.334-18.51-18.538-18.51h-5.471-13.549c3.203 0 6.208.822 8.844 2.268 5.754 3.146 9.694 9.269 9.694 16.243v13.861c0 2.579-2.126 4.677-4.705 4.677z" fill="#d88954" fill-rule="evenodd"/></g><path d="m211.599 412.714c0 4.142-3.358 0-7.5 0s-7.5 4.142-7.5 0"/><g><path clip-rule="evenodd" d="m292.991 298.562c12.614 0 22.847-10.233 22.847-22.847 0-12.643-10.233-22.876-22.847-22.876-12.642 0-22.875 10.233-22.875 22.876 0 12.614 10.233 22.847 22.875 22.847z" fill="#ea9a58" fill-rule="evenodd"/></g><g><path d="m502.013 296.538c4.142 0 7.5-3.358 7.5-7.5v-131.407c.001-6.695.002-12.478-5.061-15.846-4.995-3.324-11.088-1.225-16.909 1.213-30.654 12.874-60.424 19.145-91.005 19.172-35.375 0-70.69-8.294-102.127-23.986-33.533-16.724-71.172-25.563-108.85-25.563-33.652 0-67.272 7.078-97.975 20.514v-25.64h12.824c6.714 0 12.177-5.463 12.177-12.177v-13.862c0-11.659-7.719-21.551-18.32-24.844 2.285-5.108 3.496-10.673 3.496-16.4-.001-22.173-18.052-40.212-40.24-40.212-22.172 0-40.211 18.039-40.211 40.212 0 5.735 1.207 11.298 3.485 16.398-10.595 3.29-18.31 13.183-18.31 24.846v13.861c0 6.714 5.463 12.177 12.177 12.177h12.795v173.294c0 4.142 3.358 7.5 7.5 7.5s7.5-3.358 7.5-7.5v-173.293h30.126v397.005c0 4.142 3.358 7.5 7.5 7.5s7.5-3.358 7.5-7.5v-63.003c30.405-14.387 64.17-21.991 97.975-21.991 35.367 0 70.692 8.294 102.153 23.985 33.506 16.725 71.136 25.564 108.824 25.564 26.55 0 58.157-6.497 96.62-19.859 16.355-5.667 16.355-18.17 16.355-31.408v-94.111c0-4.142-3.358-7.5-7.5-7.5s-7.5 3.358-7.5 7.5v94.111c0 14.648-.892 15.373-6.271 17.237-36.86 12.805-66.856 19.03-91.704 19.03-3.682 0-7.362-.111-11.038-.29v-276.872c3.679.168 7.361.278 11.045.278 32.617-.029 64.283-6.683 96.8-20.34.42-.176.809-.334 1.167-.477.001.433.001.864.001 1.275v131.409c.001 4.142 3.359 7.5 7.501 7.5zm-444.49-281.538c13.917 0 25.239 11.31 25.239 25.212 0 5.544-1.808 10.851-5.131 15.234h-40.197c-3.317-4.364-5.122-9.67-5.122-15.234 0-13.902 11.31-25.212 25.211-25.212zm-40.036 66.456c0-6.071 4.939-11.01 11.01-11.01h58.052c6.086 0 11.038 4.939 11.038 11.01v11.039h-80.1zm70.099 343.563v-275.407c30.405-14.387 64.171-21.991 97.975-21.991 3.682 0 7.362.111 11.038.29v276.872c-3.677-.168-7.357-.277-11.038-.277-33.653-.001-67.273 7.078-97.975 20.513zm282.914 27.538c-26.476-3.036-52.385-10.656-76.089-22.488-25.79-12.863-54.013-21.04-82.812-24.14v-276.81c26.476 3.036 52.394 10.656 76.115 22.487 25.77 12.864 53.983 21.041 82.786 24.141z"/><path d="m34.959 307.9c-4.142 0-7.5 3.358-7.5 7.5v189.1c0 4.142 3.358 7.5 7.5 7.5s7.5-3.358 7.5-7.5v-189.1c0-4.142-3.357-7.5-7.5-7.5z"/><path d="m262.569 309.779c-3.011-2.846-7.758-2.712-10.603.299-2.845 3.01-2.711 7.757.299 10.603 11.068 10.461 25.532 16.223 40.726 16.223 15.228 0 29.694-5.764 40.734-16.23 3.006-2.85 3.132-7.597.283-10.603-2.85-3.006-7.597-3.132-10.603-.283-8.241 7.813-19.042 12.116-30.414 12.116-11.346-.001-22.15-4.306-30.422-12.125z"/><path d="m262.616 275.715c0 16.734 13.626 30.348 30.375 30.348 16.733 0 30.347-13.614 30.347-30.348 0-16.749-13.613-30.375-30.347-30.375-16.749-.001-30.375 13.626-30.375 30.375zm30.375-15.376c8.462 0 15.347 6.897 15.347 15.375 0 8.463-6.884 15.348-15.347 15.348-8.478 0-15.375-6.885-15.375-15.348 0-8.477 6.897-15.375 15.375-15.375z"/></g></g></svg>