<svg id="Capa_1" enable-background="new 0 0 512.002 512.002" height="512" viewBox="0 0 512.002 512.002" width="512" xmlns="http://www.w3.org/2000/svg"><g><g><path d="m409.16 26.572c-66.892-20.069-165.581-24.306-245.912-12.666l-31.843 7.452 47.322 178.451 77.827 6.549 123.225-10.638 8.181-6.688 35.921-136.095c2.946-11.159-3.667-23.049-14.721-26.365z" fill="#8479c2"/><path d="m148.067 44.604c-2.885-12.883 3.594-26.607 14.42-30.435.252-.089.51-.175.762-.263-21.379 3.098-41.463 7.316-59.296 12.665-11.056 3.316-17.672 15.206-14.726 26.366l35.921 136.095 4.976 6.688 52.771 4.44z" fill="#6e60b8"/><path d="m359.003 61.86c-9.498.838-18.637 5.442-24.966 13.552-6.561 8.408-8.738 18.831-6.902 28.546l27.395-13.517 1.225-1.648c4.84-8.337 5.824-18.092 3.248-26.933z" fill="#00f4a8"/><path d="m328.224 103.388c-1.843-9.451.252-19.615 6.641-27.802 6.158-7.892 15.067-12.354 24.312-13.124-.174-.64-.362-1.276-.573-1.907-1.134-3.387-4.185-5.768-7.747-6.045-11.138-.865-22.482 3.687-29.869 13.154-6.389 8.188-8.484 18.352-6.641 27.802l.6 2.809 6.167 8.654 7.117-3.511z" fill="#00e49d"/><path d="m192.122 67.664c-1.663-2.131-3.535-3.999-5.552-5.627-2.363-.289-4.751-.366-7.133-.181-3.709.288-6.887 2.768-8.067 6.295-3.143 9.388-2.343 19.914 2.701 28.92l-.854 1.194 17.563 8.663 7.417-8.904.566-2.559c1.842-9.45-.253-19.613-6.641-27.801z" fill="#00e49d"/><path d="m174.6 96.246c-4.843-8.648-5.612-18.755-2.594-27.77 1.134-3.387 4.185-5.768 7.747-6.045 2.548-.198 5.104-.098 7.624.265-7.062-6.062-16.158-8.883-25.124-8.186-3.561.276-6.613 2.657-7.747 6.045-3.072 9.177-2.231 19.489 2.849 28.238l.675 1.982 15.142 7.469z" fill="#00d391"/><path d="m372.725 111.698c-9.44-6.613-21.906-8.521-33.436-3.988-7.061 2.776-12.706 7.577-16.595 13.457l.345 3.107 2.125 2.678c8.682 4.81 19.356 5.863 29.315 1.947 8.4-3.303 14.77-9.538 18.408-17.07-.055-.042-.104-.09-.162-.131z" fill="#00e49d"/><path d="m323.039 121.852c3.776-6.003 9.424-10.902 16.532-13.697 11.175-4.394 23.258-2.544 32.408 3.865.203.143.381.309.57.466 1.367-2.683 2.395-5.533 3.026-8.488.747-3.493-.67-7.095-3.596-9.145-9.15-6.409-21.232-8.259-32.408-3.865-7.108 2.795-12.755 7.694-16.532 13.698l-1.925 2.244 1.687 15.2z" fill="#00d391"/><path d="m150.103 93.96c2.389 11.184 10.156 20.996 21.597 25.495 6.114 2.404 12.489 2.965 18.531 1.979l.548-14.505-.709-2.244c-3.776-6.003-9.424-10.902-16.532-13.697-7.815-3.073-16.071-3.083-23.461-.625-.222 1.169-.232 2.387.026 3.597z" fill="#00f4a8"/><path d="m172.131 118.773c-11.176-4.394-18.762-13.979-21.095-24.903-.274-1.284-.251-2.582.026-3.814-3.538 1.061-6.897 2.672-9.931 4.797-2.926 2.049-4.342 5.651-3.596 9.145 2.334 10.924 9.92 20.509 21.095 24.903 9.959 3.916 20.633 2.862 29.315-1.947l2.125-1.262.189-4.989c-5.91.969-12.147.422-18.128-1.93z" fill="#00e49d"/><path d="m417.685 184.967c-73.272 11.941-186.952 13.934-273.737 5.991l-8.237 2.15-5.587 13.25v51.5l40.561 54.5h195.845l6.756 2.435c13.708-1.837 26.845-6.933 38.03-15.223 20.546-15.228 34.203-39.537 34.203-67.976v-23.037c0-14.773-13.253-25.966-27.834-23.59z" fill="#9790cc"/><g><path d="m150.814 279.243c-9.175-13.408-14.613-29.704-14.613-47.648v-23.037c0-7.042 3.016-13.266 7.747-17.599-17.441-1.596-33.801-3.592-48.523-5.991-14.581-2.376-27.835 8.817-27.835 23.59v23.037c0 17.944 5.438 34.24 14.613 47.648 13.407 19.593 34.679 32.076 57.935 35.181l8.142-2.066h50.099c-19.122-4.997-36.182-16.481-47.565-33.115z" fill="#8479c2"/></g><path d="m372.341 313.683c-.019-.021-.039-.043-.058-.065-3.179-3.55-4.201-8.522-2.817-13.082 2.084-6.865 4.908-18.528 5.82-33.517.402-6.603-3.157-12.786-9.086-15.72-46.908-23.212-172.352-23.228-219.292 0-5.929 2.934-9.488 9.117-9.086 15.72.912 14.989 3.736 26.652 5.82 33.517 1.384 4.56.363 9.532-2.817 13.082-.019.022-.039.043-.058.065-17.73 19.776-11.593 45.348 5.796 56.6s20.117 43.302 18.03 71.261c-1.311 17.568 19.772 37.915 35.625 50.613 10.01 8.018 22.472 12.345 35.297 12.345h42.076c12.825 0 25.287-4.328 35.297-12.345 15.853-12.698 36.937-33.045 35.625-50.613-2.087-27.959.641-60.009 18.03-71.261 17.391-11.252 23.528-36.824 5.798-56.6z" fill="#dbedff"/><path d="m252.369 491.403c-15.853-13.473-36.937-35.063-35.625-53.704 2.087-29.666-.641-63.674-18.03-75.613s-23.526-39.073-5.796-60.056c.02-.023.039-.045.058-.069 3.179-3.767 4.201-9.042 2.816-13.881-2.084-7.284-4.908-19.659-5.82-35.563-.324-5.649 1.93-11.006 5.922-14.502-19.726 2.9-36.943 7.325-48.986 13.285-5.929 2.934-9.488 9.117-9.086 15.72.912 14.989 3.736 26.652 5.82 33.517 1.385 4.56.363 9.532-2.816 13.082-.019.021-.039.043-.058.064-17.73 19.776-11.593 45.348 5.796 56.6s20.117 43.302 18.03 71.261c-1.311 17.568 19.772 37.915 35.625 50.613 10.01 8.018 22.472 12.345 35.297 12.345h42.076c1.709 0 3.41-.083 5.101-.234-11.047-1.028-21.614-5.463-30.324-12.865z" fill="#b5dcff"/><g fill="#8479c2"><path d="m278.845 374.137c-.428-.428-6.156-6.156-11.562-11.562-5.438 5.438-11.093 11.093-11.529 11.53-5.48 5.479-5.716 14.195-.744 19.976l.644-.645c.498-.497 1.304-.497 1.802 0l1.045 1.045c5.618 5.618 14.726 5.618 20.344 0s5.618-14.726 0-20.344z"/><path d="m341.848 326.021c-1.712-13.955-21.736-20.085-38.285-22.776-1.345 1.299-2.266 3.051-2.488 5.052-1.382 12.422.115 36.528 29.147 47.621 4.927-2.538 8.848-6.98 10.487-12.693 1.341-4.672 1.976-10.378 1.139-17.204z"/><path d="m233.183 308.733c-.485-4.357-4.319-7.541-8.691-7.223-4.574.332-10.861.971-17.513 2.178-7.723 3.721-13.536 8.926-14.433 16.236-.858 6.997-.207 12.847 1.168 17.636 2.332 8.123 9.149 13.757 17.005 15.108 22.556-11.712 23.714-32.7 22.464-43.935z"/></g><g><path d="m256.014 374.137c.43-.43 6.056-6.056 11.415-11.416-4.773-4.773-9.336-9.335-9.833-9.832-.003-.003-.007-.007-.01-.01-.568-.567-1.497-.567-2.065 0-.003.003-.007.007-.01.01-1.024 1.024-20.434 20.434-21.248 21.248-5.618 5.618-5.618 14.726 0 20.344s14.726 5.618 20.344 0l.738-.738c-4.924-5.651-4.712-14.225.669-19.606z" fill="#6e60b8"/></g><path d="m301.677 308.733c.24-2.159 1.304-4.028 2.847-5.327-6.051-1.025-11.702-1.59-15.906-1.896-4.372-.318-8.206 2.866-8.691 7.223-1.451 13.042.315 39.241 35.074 48.797 5.512 1.516 11.157.68 15.816-1.908-29.021-10.765-30.504-34.633-29.14-46.889z" fill="#6e60b8"/><path d="m194.15 337.394c-1.341-4.672-1.977-10.378-1.139-17.204.967-7.881 7.782-13.26 16.506-16.94-16.543 2.693-36.545 8.824-38.256 22.771-.837 6.826-.202 12.532 1.139 17.204 3.151 10.979 14.695 17.334 25.708 14.306 5.164-1.42 9.583-3.213 13.388-5.27-7.981-1.073-14.996-6.681-17.346-14.867z" fill="#6e60b8"/><path d="m323.959 108.408c-1.365-10.085-10.54-16.206-20.38-13.608l-14.252 3.973c-.03.009-.059.017-.088.025-2.699.762-5.136-1.675-4.375-4.375.008-.03.017-.059.025-.088l3.973-14.252c2.597-9.84-3.523-19.015-13.608-20.38-7.05-.954-14.719-1.328-22.275-1.15l-5.701 1.221s-7.96 4.333-6.73 14.25 4.314 23.417 4.314 23.417l-14.583-1.75-2.704 1.967c-.839 1.014-2.232 1.556-3.706 1.14-.029-.008-.059-.016-.088-.025l-5.435-1.515s-14.066-.884-14.066 9.775v45.245s6.229 4.289 9.208 4.747l4.858-.065 5.435-1.515c.03-.008.059-.016.088-.025 1.475-.416 2.867.126 3.707 1.14l3.371 1.298-1.917 25 17.875 11.812 6.076.993c7.556.178 15.225-.196 22.275-1.15 10.085-1.365 16.206-10.54 13.608-20.379l-3.973-14.252c-.008-.029-.016-.059-.025-.088-.762-2.699 1.675-5.137 4.375-4.375.029.008.059.016.088.025l14.252 3.974c9.84 2.597 19.015-3.523 20.38-13.608.804-5.939 1.206-12.32 1.206-18.701-.002-6.381-.404-12.762-1.208-18.701z" fill="#ffc365"/><path d="m228.219 94.335c.008.029.016.059.025.088.346 1.225.029 2.392-.668 3.234.207.05.413.087.621.142l14.252 3.973c.029.009.059.017.088.025 2.699.762 5.136-1.675 4.375-4.375-.008-.03-.017-.059-.025-.088l-3.974-19.252c-2.277-8.628 2.147-16.739 10.068-19.53-5.173.122-10.294.496-15.123 1.149-10.087 1.365-16.209 10.538-13.612 20.38z" fill="#ffa90f"/><path d="m207.817 145.809c-.804-5.939-1.206-12.32-1.206-18.701s.402-12.761 1.206-18.7c.883-6.525 5.043-10.118 10.53-11.15l-8.817-2.458c-9.84-2.597-19.015 3.523-20.38 13.608-.804 5.939-1.206 12.32-1.206 18.7 0 6.381.402 12.761 1.206 18.701 1.365 10.085 10.54 16.206 20.38 13.608l8.817-2.458c-5.487-1.032-9.648-4.625-10.53-11.15z" fill="#ffa90f"/><path d="m242.912 176.134 3.974-19.252c.008-.029.017-.059.025-.088.762-2.699-1.675-5.136-4.375-4.375-.03.008-.059.016-.088.025l-14.252 3.974c-.208.055-.413.092-.621.142.697.842 1.014 2.009.668 3.234-.008.03-.017.059-.025.088l-3.974 14.252c-2.598 9.842 3.524 19.015 13.612 20.38 4.829.653 9.95 1.027 15.123 1.149-7.919-2.79-12.344-10.902-10.067-19.529z" fill="#ffa90f"/><path d="m262.614 112.299c-5.452 2.707-9.21 8.31-9.21 14.809 0 6.5 3.759 12.103 9.21 14.81 5.833-2.39 9.945-8.116 9.945-14.81.001-6.693-4.112-12.419-9.945-14.809z" fill="#f27182"/><path d="m253.725 127.108c0-6.488 3.868-12.062 9.417-14.575-2.011-.91-4.237-1.43-6.588-1.43-8.839 0-16.005 7.166-16.005 16.005s7.166 16.005 16.005 16.005c2.351 0 4.577-.52 6.588-1.43-5.549-2.513-9.417-8.086-9.417-14.575z" fill="#ed5469"/></g><g><path d="m256.001 150.613c12.961 0 23.505-10.544 23.505-23.505s-10.544-23.505-23.505-23.505-23.505 10.544-23.505 23.505 10.544 23.505 23.505 23.505zm0-32.009c4.689 0 8.505 3.815 8.505 8.505s-3.815 8.505-8.505 8.505-8.505-3.815-8.505-8.505 3.816-8.505 8.505-8.505z"/><path d="m262.362 347.603c-.018-.018-.035-.036-.053-.053-3.453-3.424-9.026-3.456-12.52-.095-.046.044-.092.088-.137.133l-21.245 21.247c-4.134 4.134-6.411 9.63-6.411 15.476 0 12.095 9.787 21.886 21.886 21.886 4.377 0 8.559-1.277 12.118-3.653 3.56 2.376 7.741 3.653 12.118 3.653 12.095 0 21.886-9.787 21.886-21.886 0-5.846-2.277-11.342-6.409-15.474-.796-.799-20.008-20.01-21.233-21.234zm5.757 43.592c-3.165 0-4.732-1.88-5.912-3.06-3.432-3.435-8.987-3.428-12.408-.004-1.134 1.134-2.716 3.063-5.916 3.063-3.811 0-6.886-3.086-6.886-6.886 0-1.839.717-3.568 2.019-4.87l16.985-16.986c6.051 6.051 16.405 16.405 16.987 16.988 1.3 1.3 2.017 3.029 2.017 4.868 0 3.797-3.071 6.887-6.886 6.887z"/><path d="m348.739 325.108c-2.877-23.447-38.91-29.536-60.133-31.078-8.431-.618-15.755 5.483-16.688 13.874-1.483 13.337-.504 45.575 40.54 56.858 2.512.691 5.042 1.02 7.535 1.02 12.377 0 23.821-8.124 27.37-20.488 1.791-6.237 2.254-13.028 1.376-20.186zm-15.793 16.048c-2.007 6.993-9.411 11.093-16.511 9.144-27.38-7.528-31.214-26.308-29.608-40.737.037-.334.309-.573.642-.573.017 0 .034 0 .051.002 27.049 1.966 45.234 9.009 46.331 17.944.63 5.146.327 9.93-.905 14.22z"/><path d="m240.083 307.905c-.933-8.392-8.271-14.491-16.688-13.875-21.222 1.542-57.255 7.631-60.132 31.078v.001c-.878 7.157-.415 13.948 1.375 20.186 3.549 12.365 14.992 20.488 27.37 20.488 2.492 0 5.023-.33 7.535-1.021 41.044-11.283 42.023-43.521 40.54-56.857zm-44.517 42.394c-7.102 1.952-14.504-2.151-16.511-9.143-1.231-4.29-1.535-9.075-.904-14.221 1.097-8.935 19.282-15.979 46.33-17.944.362-.03.654.219.693.572 1.606 14.429-2.228 33.208-29.608 40.736z"/><path d="m452.466 231.594v-23.037c0-19.394-17.409-34.109-36.541-30.993-5.881.958-12.046 1.85-18.44 2.678l7.889-29.886c1.057-4.005-1.333-8.108-5.338-9.166-4.008-1.059-8.109 1.332-9.166 5.337l-9.397 35.604c-26.501 2.835-56.192 4.671-86.826 5.505 1.977-4.771 2.318-10.104.916-15.418-.009-.033-.019-.066-.027-.1l-2.118-7.596 7.596 2.118c.033.009.067.018.101.027 14.216 3.757 27.753-5.284 29.727-19.854.401-2.967.702-6.027.914-9.151 3.146.741 6.356 1.132 9.575 1.132 5.184 0 10.383-.966 15.341-2.916 13.132-5.164 22.733-16.497 25.687-30.317 1.378-6.453-1.224-13.068-6.628-16.854-3.174-2.223-6.592-3.95-10.144-5.207 2.441-8.201 2.351-17.047-.421-25.329-2.095-6.258-7.699-10.631-14.277-11.142-23.687-1.84-44.002 16.205-45.166 39.74-1.528.117-3.068.37-4.607.776-.033.009-.066.018-.101.027l-7.596 2.118 2.118-7.595c.009-.033.019-.066.027-.1 3.752-14.215-5.282-27.755-19.854-29.726-12.524-1.695-26.889-1.695-39.409 0-14.572 1.971-23.61 15.507-19.857 29.727.009.033.019.067.027.1l2.118 7.595-7.596-2.118c-.034-.009-.067-.018-.101-.027-1.539-.406-3.078-.658-4.607-.776-1.166-23.589-21.535-41.578-45.165-39.74-6.579.511-12.184 4.884-14.278 11.142-2.772 8.282-2.863 17.128-.421 25.329-3.552 1.256-6.97 2.984-10.144 5.207-5.404 3.786-8.006 10.401-6.627 16.854 4.905 22.959 27.66 37.508 50.602 32.1.212 3.124.513 6.185.915 9.151 1.972 14.568 15.507 23.609 29.726 19.854.033-.009.067-.018.101-.027l7.596-2.118-2.118 7.596c-.009.033-.019.067-.027.1-1.402 5.314-1.061 10.647.916 15.417-30.634-.834-60.325-2.669-86.825-5.505l-34.61-131.108c-1.907-7.223 2.503-15.13 9.629-17.268 82.965-24.885 217.947-24.884 300.896.001 7.124 2.137 11.532 10.044 9.625 17.267l-16.094 60.978c-1.057 4.005 1.333 8.109 5.338 9.166 4.001 1.058 8.109-1.333 9.166-5.337l16.094-60.977c3.98-15.082-4.91-30.99-19.818-35.462-41.656-12.499-96.598-19.385-154.705-19.39-.024 0-.042 0-.066 0-58.109 0-113.067 6.885-154.746 19.387-14.912 4.473-23.805 20.382-19.823 35.464l33.096 125.392c-6.394-.828-12.559-1.719-18.441-2.678-19.146-3.121-36.541 11.612-36.541 30.993v23.037c0 18.719 5.506 36.66 15.924 51.884 12.165 17.776 30.577 30.537 51.632 36.099-10.827 21.125-3.354 45.226 14.845 57.002 11.78 7.623 17.111 31.098 14.625 64.405-1.227 16.439 11.698 35.625 38.416 57.025 11.265 9.023 25.465 13.992 39.985 13.992h3.538c4.143 0 7.5-3.358 7.5-7.5s-3.357-7.5-7.5-7.5h-3.538c-11.124 0-21.994-3.8-30.608-10.699-21.668-17.356-33.636-33.466-32.834-44.202.875-11.726 1.02-24.906-.685-37.288 8.592 2.229 20.84 8.051 24.781 23.268.371 1.43.869 2.824 1.483 4.168l-1.998 2.196c-2.788 3.063-2.564 7.807.499 10.595 3.064 2.787 7.807 2.564 10.595-.5l.795-.874c3.527 2.463 8.029 5.021 13.633 7.235l-.289.842c-1.345 3.918.741 8.184 4.659 9.528 3.925 1.345 8.186-.746 9.528-4.66l.525-1.529c4.099.809 8.575 1.405 13.454 1.711v1.939c0 4.142 3.357 7.5 7.5 7.5s7.5-3.358 7.5-7.5v-1.939c4.878-.306 9.355-.901 13.454-1.711l.525 1.529c1.343 3.915 5.604 6.005 9.528 4.66 3.918-1.345 6.004-5.61 4.659-9.528l-.289-.842c5.604-2.213 10.106-4.772 13.633-7.235l.795.874c2.787 3.064 7.53 3.288 10.595.5 3.063-2.788 3.287-7.531.499-10.595l-1.998-2.196c.614-1.344 1.112-2.739 1.482-4.169 3.964-15.304 16.195-21.101 24.786-23.301-1.709 12.392-1.565 25.585-.689 37.322.802 10.735-11.166 26.845-32.834 44.201-8.614 6.899-19.484 10.699-30.608 10.699h-3.538c-4.143 0-7.5 3.358-7.5 7.5s3.357 7.5 7.5 7.5h3.538c14.521 0 28.721-4.969 39.985-13.992 26.718-21.4 39.643-40.586 38.416-57.025-2.486-33.308 2.845-56.783 14.625-64.406 18.135-11.734 25.551-35.623 15.036-56.609 10.963-2.897 21.222-7.774 30.127-14.375 23.666-17.538 37.238-44.511 37.238-74zm-85.344-130.598c.46.322.682.885.563 1.435-1.898 8.887-8.068 16.173-16.505 19.49-6.201 2.438-12.986 2.479-19.147.209-.207-6.675-.973-13.675-1.392-15.957 8.889-11.109 24.86-13.315 36.481-5.177zm-17.398-39.009c.56.043 1.036.416 1.214.948 2 5.975 1.844 12.404-.358 18.184-10.999.373-20.581 4.667-27.647 11.311-.583-.513-1.421-1.169-2.213-1.707-1.139-16.341 12.48-30.024 29.004-28.736zm-169.755 60.142c-15.327 5.644-32.206-3.566-35.653-19.698-.118-.55.104-1.113.563-1.435 11.608-8.132 27.585-5.933 36.482 5.177-.405 2.181-1.185 9.254-1.392 15.956zm11.314-31.406c-.704.478-1.44 1.039-2.213 1.707-3.751-3.519-8.322-6.449-13.34-8.421-4.627-1.819-9.474-2.751-14.308-2.889-2.202-5.78-2.358-12.209-.358-18.184.178-.533.654-.905 1.214-.948 16.536-1.289 30.142 12.403 29.005 28.735zm15.736 61.454c-5.461 1.418-10.232-1.769-10.99-7.375-1.947-14.378-1.109-34.204.873-38.35.014-.029.03-.055.044-.084 1.772-3.607 5.696-5.464 10.074-4.329l14.194 3.958c.027.008.052.015.065.018 8.331 2.351 15.969-5.301 13.634-13.616-.009-.033-.018-.063-.021-.079l-3.959-14.197c-1.418-5.473 1.783-10.232 7.378-10.988 11.244-1.521 24.142-1.521 35.386 0 5.592.757 8.795 5.517 7.374 10.989l-3.976 14.261c-2.348 8.324 5.299 15.98 13.63 13.63.021-.006.052-.015.084-.024l14.176-3.953c5.508-1.43 10.245 1.868 10.992 7.387 1.463 10.809 1.565 23.81-.001 35.376-.761 5.624-5.553 8.79-10.99 7.374l-14.164-3.949c-.02-.005-.062-.018-.104-.029-8.265-2.327-15.992 5.226-13.604 13.697l3.958 14.196c1.419 5.461-1.771 10.23-7.374 10.989-11.196 1.516-24.103 1.527-35.386.001-5.605-.759-8.795-5.524-7.377-10.99l3.963-14.214c.006-.02.014-.048.021-.078 2.322-8.314-5.318-15.943-13.632-13.601-.031.008-.06.017-.072.02zm154.898 211.809c-8.428 5.454-13.854 14.349-17.222 24.824-13.426 1.702-33.6 9.586-41.402 30.945-2.812-1.994-6.725-1.842-9.379.572-3.063 2.788-3.287 7.531-.499 10.595l1.381 1.518c-2.163 1.363-4.913 2.84-8.305 4.219l-.8-2.331c-1.344-3.918-5.611-6.002-9.528-4.66-3.918 1.345-6.004 5.61-4.659 9.528l.52 1.516c-2.638.457-5.477.814-8.523 1.039v-1.431c0-4.142-3.357-7.5-7.5-7.5s-7.5 3.358-7.5 7.5v1.431c-3.047-.225-5.885-.582-8.523-1.039l.52-1.516c1.345-3.918-.741-8.184-4.659-9.528-3.919-1.342-8.185.742-9.528 4.66l-.8 2.331c-3.392-1.379-6.142-2.856-8.305-4.219l1.381-1.518c2.788-3.063 2.564-7.807-.499-10.595-2.655-2.415-6.568-2.566-9.379-.572-7.802-21.359-27.976-29.243-41.402-30.945-3.368-10.475-8.793-19.37-17.222-24.824-14.546-9.412-17.876-29.868-4.812-44.674.08-.095.503-.595.588-.69 4.863-5.432 6.551-13.197 4.405-20.264-3.087-10.171-4.877-21.365-5.511-31.793-.219-3.6 1.715-6.954 4.927-8.542 25.882-12.809 72.667-16.277 101.499-16.568-1.637 1.376-2.679 3.436-2.679 5.742v8.354h-8.354c-4.143 0-7.5 3.358-7.5 7.5s3.357 7.5 7.5 7.5h8.354v16.879c0 4.142 3.357 7.5 7.5 7.5s7.5-3.358 7.5-7.5v-16.88h8.354c4.143 0 7.5-3.358 7.5-7.5s-3.357-7.5-7.5-7.5h-8.354v-8.354c0-2.306-1.042-4.366-2.679-5.742 28.946.292 75.673 3.788 101.499 16.568 5.904 2.92 4.965 8.715 4.607 12.758-1.07 12.074-3.36 21.543-5.191 27.577-2.119 6.978-.529 14.743 4.469 20.335 14.194 15.82 9.785 36.186-4.29 45.294zm44.38-70.441c-8.738 6.476-19.081 10.959-30.137 13.093-.385-1-.478-2.58-.07-3.922 3.069-10.112 5.339-22.233 6.13-35.24.585-9.609-4.605-18.622-13.246-22.897-48.96-24.228-176.863-24.288-225.945 0-8.698 4.304-13.815 13.338-13.246 22.898.785 12.899 3.03 25.026 6.13 35.24.325 1.068.371 2.324.049 3.517-19.688-3.831-37.044-15.036-48.123-31.226-8.703-12.718-13.303-27.73-13.303-43.413v-23.037c0-10.131 9.098-17.819 19.129-16.188 89.512 14.587 235.16 14.587 324.672 0 10.019-1.636 19.129 6.052 19.129 16.188v23.037c0 24.688-11.361 47.268-31.169 61.95z"/></g></g></svg>