<svg id="Filled" height="512" viewBox="0 0 512 512" width="512" xmlns="http://www.w3.org/2000/svg"><path d="m232 136c1.03 2.769 32-48-16-80l16-32s80 16 56 112z" fill="#bd620e"/><path d="m488 304c0 152-88 184-128 184s-96-32-96-184 56-184 96-184 128 32 128 184z" fill="#ed8424"/><ellipse cx="312" cy="304" fill="#f78a25" rx="96" ry="184"/><path d="m24 304c0 152 88 184 128 184s96-32 96-184-56-184-96-184-128 32-128 184z" fill="#ed8424"/><ellipse cx="200" cy="304" fill="#f78a25" rx="96" ry="184"/><path d="m184 304v56c10.471 128 59.241 128 72 128s61.529 0 72-128v-56c0-184-57.6-184-72-184s-72 0-72 184z" fill="#ff8e26"/><g fill="#464c4f"><path d="m280 256 88-40s25.11 60.578-32 72c-40 8-56-32-56-32z"/><path d="m232 256-88-40s-25.11 60.578 32 72c40 8 56-32 56-32z"/><path d="m232 328h48l-24-40z"/><path d="m424 320c0 91.46-97.58 113.21-144 118.39v-30.39h-48v30.39c-46.42-5.18-144-26.93-144-118.39 0 0 19.72 8.22 48 17.21v30.79l48 16v-33.54c23.86 5.51 49.14 9.54 72 9.54s48.14-4.03 72-9.54v33.54l48-16v-30.79c28.28-8.99 48-17.21 48-17.21z"/></g><path d="m152 496a80.156 80.156 0 0 0 25.021-3.972 71.527 71.527 0 0 0 22.979 3.972 73.415 73.415 0 0 0 29.051-6.307 54.685 54.685 0 0 0 26.949 6.307 54.688 54.688 0 0 0 26.946-6.305 73.532 73.532 0 0 0 29.054 6.305 71.548 71.548 0 0 0 22.969-3.968 80.136 80.136 0 0 0 25.031 3.968c11.1 0 50.007-2.693 84.657-37.343 34.069-34.069 51.343-86.103 51.343-154.657s-17.274-120.588-51.343-154.657c-34.65-34.65-73.557-37.343-84.657-37.343a80.115 80.115 0 0 0 -25.065 3.98 72.715 72.715 0 0 0 -22.935-3.98 67.771 67.771 0 0 0 -12 1.1c2.069-24.729-2.341-54.87-27.985-77.165a91.972 91.972 0 0 0 -38.442-19.783 8 8 0 0 0 -8.724 4.267l-16 32a8 8 0 0 0 2.717 10.234c25.963 17.309 25.064 40.127 21.2 54.072q-1.662.771-3.371 1.72a73.62 73.62 0 0 0 -29.395-6.445 72.715 72.715 0 0 0 -22.935 3.98 80.115 80.115 0 0 0 -25.065-3.98c-11.1 0-50.007 2.693-84.657 37.343-34.069 34.069-51.343 86.103-51.343 154.657s17.274 120.588 51.343 154.657c34.65 34.65 73.557 37.343 84.657 37.343zm13.868-27.314c-17.2-11.743-30.439-31.246-39.523-58.131q5.768 4.147 12.233 7.915c16.828 9.761 35.279 16.313 52.655 20.715 6 16.477 13.6 29.479 22.678 38.885a54.1 54.1 0 0 1 -13.911 1.93c-6.558 0-19.713-1.47-34.132-11.314zm-37.868-125.649v24.963a8 8 0 0 0 5.47 7.589l48 16a8 8 0 0 0 10.53-7.589v-23.585c24.022 5.036 45.511 7.585 64 7.585s39.978-2.549 64-7.585v23.585a8 8 0 0 0 10.53 7.589l48-16a8 8 0 0 0 5.47-7.589v-24.963c12.987-4.244 23.811-8.179 31.362-11.043-3.377 30.937-20.143 55.335-49.968 72.636-25.135 14.58-54.6 21.452-77.394 24.684v-21.314a8 8 0 0 0 -8-8h-48a8 8 0 0 0 -8 8v21.314c-22.8-3.232-52.259-10.1-77.393-24.684-29.826-17.3-46.592-41.7-49.969-72.636 7.551 2.864 18.374 6.799 31.362 11.043zm99.37-202.994c11.742-12.043 23.149-12.043 28.63-12.043s16.888 0 28.63 12.043c15.383 15.776 26.235 47.089 31.5 90.745l-39.445 17.929a8 8 0 0 0 -4.117 10.254 71.62 71.62 0 0 0 14.771 21.686c9.391 9.391 20.465 14.81 32.625 16.094.02 2.4.032 47.3.032 47.3-24.272 5.273-45.781 7.95-64 7.95s-39.729-2.677-64-7.95c0 0 .011-44.9.031-47.3 12.16-1.284 23.235-6.7 32.626-16.094a71.6 71.6 0 0 0 14.771-21.686 8 8 0 0 0 -4.117-10.254l-39.445-17.929c5.273-43.657 16.125-74.969 31.508-90.745zm107.061 140.112c-23.748 4.75-37.443-10.852-43.416-20.374l72.1-32.774c2.34 9.079 4.606 24.19-1.721 35.987-4.688 8.747-13.76 14.521-26.963 17.161zm-113.445-20.374c-5.972 9.523-19.666 25.124-43.417 20.374-13.2-2.64-22.275-8.414-26.965-17.161-6.327-11.8-4.06-26.912-1.722-35.987zm-10.846 183.5c7.533 1.366 14.616 2.352 20.973 3.062a8 8 0 0 0 8.887-7.953v-22.39h32v22.39a8 8 0 0 0 8.888 7.951c6.357-.71 13.44-1.7 20.973-3.062-16.551 36.714-38.231 36.721-45.861 36.721s-29.31-.007-45.86-36.721zm87.944 34.8c9.08-9.407 16.678-22.411 22.683-38.891 17.376-4.4 35.827-10.954 52.655-20.715q6.478-3.759 12.233-7.915c-9.085 26.885-22.322 46.388-39.523 58.131-14.419 9.839-27.574 11.309-34.132 11.309a53.861 53.861 0 0 1 -13.916-1.924zm61.916-350.081c19.669 0 49.266 8.579 73.343 32.657 30.957 30.959 46.657 79.187 46.657 143.343s-15.7 112.384-46.657 143.343c-24.077 24.078-53.674 32.657-73.343 32.657-.708 0-1.411-.023-2.115-.045 23.948-17.662 40.733-47.852 49.941-89.814 16.059-19.25 24.174-42.706 24.174-70.141a8 8 0 0 0 -11.077-7.385c-.058.024-1.841.764-5.027 2.015q.1-5.257.1-10.63c0-79.171-15.929-135.242-47.343-166.657a95.329 95.329 0 0 0 -10.771-9.3c.707-.02 1.411-.043 2.118-.043zm40 176c0 5.667-.086 11.263-.257 16.7-7.329 2.647-16.224 5.722-26.167 8.883a8 8 0 0 0 -5.576 7.627v25.024l-32 10.666s-.013-74.175-.036-76.773c.535-.093 1.067-.175 1.605-.282 18.149-3.63 30.924-12.166 37.971-25.37 13.189-24.711.4-56.209-.149-57.538a8 8 0 0 0 -10.7-4.22l-33.3 15.138c-5.846-44.1-17.3-75.579-34.1-93.7a54.213 54.213 0 0 1 14.709-2.155c14.7 0 88 8.485 88 176zm-173.812-250.487 10-20a77.611 77.611 0 0 1 25.325 14.5c18.7 16.258 26.031 39.837 21.839 70.121-.247.106-.5.2-.742.314a52.143 52.143 0 0 0 -26.61-6.448c-1.477 0-3.517 0-5.974.2 2.393-16.166.287-39.635-23.838-58.687zm-11.475 76.637c-16.8 18.126-28.252 49.606-34.1 93.706l-33.305-15.139a8 8 0 0 0 -10.7 4.22c-.551 1.329-13.338 32.827-.15 57.538 7.047 13.2 19.822 21.74 37.971 25.37.538.107 1.071.189 1.6.282-.016 2.608-.029 76.773-.029 76.773l-32-10.666v-25.024a8 8 0 0 0 -5.576-7.624c-9.944-3.161-18.838-6.236-26.168-8.883-.17-5.442-.256-11.038-.256-16.7 0-167.515 73.305-176 88-176a54.213 54.213 0 0 1 14.713 2.147zm-136.056 30.507c24.078-24.078 53.674-32.657 73.343-32.657.707 0 1.411.023 2.114.045a95.329 95.329 0 0 0 -10.771 9.3c-31.414 31.413-47.343 87.484-47.343 166.655q0 5.365.1 10.63c-3.185-1.251-4.968-1.991-5.026-2.015a8 8 0 0 0 -11.074 7.385c0 27.435 8.115 50.891 24.173 70.14 9.208 41.964 26 72.156 49.945 89.817-.7.022-1.41.043-2.118.043-19.669 0-49.265-8.579-73.343-32.657-30.957-30.959-46.657-79.187-46.657-143.343s15.7-112.384 46.657-143.343z"/><path d="m225.039 331.941a8 8 0 0 0 6.961 4.059h48a8 8 0 0 0 6.86-12.116l-24-40a8 8 0 0 0 -13.72 0l-24 40a8 8 0 0 0 -.101 8.057zm30.961-28.392 9.871 16.451h-19.742z"/></svg>