<?xml version="1.0"?>
<svg xmlns="http://www.w3.org/2000/svg" id="Filled" viewBox="0 0 512 512" width="512" height="512"><path d="M384,216V200H128v16S96,309.071,96,344c0,120,115.876,106.2,144,112,5.9,1.216-20.741,32-16,32,8,0,192-8,192-144C416,309.071,384,216,384,216Z" style="fill:#cddee7"/><path d="M360,304c0-61.856-46.562-112-104-112S152,242.144,152,304v16H360Z" style="fill:#fee5b5"/><polygon points="376 168 136 168 236 64 256 64 276 64 376 168" style="fill:#dc2027"/><circle cx="256" cy="56" r="32" style="fill:#e6e6e6"/><path d="M256,312s-32-16-56-16a39.327,39.327,0,0,0-24,8c-24.588,18.441-48,16-48,16s33.6,24,72,24S256,312,256,312Z" style="fill:#fff"/><path d="M256,312s32-16,56-16a39.327,39.327,0,0,1,24,8c24.588,18.441,48,16,48,16s-33.6,24-72,24S256,312,256,312Z" style="fill:#fff"/><circle cx="256" cy="296" r="24" style="fill:#dc2027"/><rect x="120" y="168" width="272" height="48" rx="16" ry="16" style="fill:#e6e6e6"/><path d="M216.43,491.492A8.517,8.517,0,0,0,224,496c10.267,0,57.669-3.663,102-21.583C390.111,448.5,424,403.4,424,344c0-32.231-25.138-108.932-31.18-126.9A23.923,23.923,0,0,0,400,200V184a24.038,24.038,0,0,0-20.323-23.718L293.292,70.441a40,40,0,1,0-74.584,0l-86.385,89.841A24.038,24.038,0,0,0,112,184v16a23.923,23.923,0,0,0,7.18,17.1C113.138,235.068,88,311.769,88,344c0,47.01,17.169,80.364,51.031,99.133,27.671,15.338,60.445,17.553,82.133,19.017,2.9.2,5.64.382,8.125.583-1.622,2.515-3.462,5.215-4.858,7.262C216.716,481.308,213.523,485.991,216.43,491.492ZM256,32a24,24,0,1,1-24,24A24.028,24.028,0,0,1,256,32ZM227.668,84.207a39.929,39.929,0,0,0,56.664,0L357.209,160H154.791ZM128,184a8.009,8.009,0,0,1,8-8H376a8.009,8.009,0,0,1,8,8v16a8.009,8.009,0,0,1-8,8H136a8.009,8.009,0,0,1-8-8ZM256,325.626a78.574,78.574,0,0,0,16.687,14.763C268.332,345.942,262.168,352,256,352s-12.332-6.058-16.687-11.611A78.574,78.574,0,0,0,256,325.626ZM200,336c-17.806,0-34.723-5.683-47.147-11.337A89.743,89.743,0,0,0,180.8,310.4,31.337,31.337,0,0,1,200,304c14.65,0,33.155,6.78,43.806,11.271C236.752,323.525,222.388,336,200,336Zm48-40a8,8,0,1,1,14.811,4.166c-2.75,1.147-5.066,2.176-6.811,2.979-1.749-.8-4.07-1.836-6.826-2.986A7.935,7.935,0,0,1,248,296Zm20.164,19.284C278.809,310.793,297.335,304,312,304a31.337,31.337,0,0,1,19.2,6.4,89.732,89.732,0,0,0,27.947,14.263C346.721,330.318,329.806,336,312,336,289.5,336,275.189,323.557,268.164,315.284ZM352,304.607a77.335,77.335,0,0,1-11.2-7.007A47.009,47.009,0,0,0,312,288c-10.4,0-21.951,2.666-32.1,5.878a23.995,23.995,0,0,0-47.8,0C221.951,290.666,210.4,288,200,288a47.009,47.009,0,0,0-28.8,9.6,77.335,77.335,0,0,1-11.2,7.007V304c0-31.161,12.6-60.146,34.662-80H317.338C339.4,243.854,352,272.839,352,304ZM222.242,446.187c-20.27-1.37-50.9-3.439-75.454-17.048C118,413.18,104,385.331,104,344c0-28.548,23.112-100.06,29.784-120.106.73.067,1.469.106,2.216.106h36.486C154.2,245.832,144,274.066,144,304v6.518a51.5,51.5,0,0,1-15.17,1.525,8,8,0,0,0-5.48,14.467C124.807,327.551,159.5,352,200,352a71.681,71.681,0,0,0,24.9-4.338,8.051,8.051,0,0,0,.7,1.138c9.555,12.74,19.783,19.2,30.4,19.2s20.845-6.46,30.4-19.2a8.051,8.051,0,0,0,.7-1.138A71.681,71.681,0,0,0,312,352c40.5,0,75.193-24.449,76.65-25.49a8.008,8.008,0,0,0-5.434-14.471A51.616,51.616,0,0,1,368,310.516V304c0-29.935-10.2-58.169-28.486-80H376c.748,0,1.486-.039,2.216-.106C384.888,243.938,408,315.441,408,344c0,53.09-29.607,91.978-88,115.583-32.241,13.034-64.7,17.779-82.391,19.484l.04-.059c9.054-13.277,12.954-19.4,10.52-25.415a9,9,0,0,0-6.555-5.428C236.787,447.169,230.369,446.736,222.242,446.187Z"/><path d="M208,240c-12.944,0-20.63,15.371-23.155,20.422a8,8,0,1,0,14.31,7.156C204.6,256.68,207.969,256,208,256s3.4.68,8.845,11.578a8,8,0,1,0,14.31-7.156C228.63,255.371,220.944,240,208,240Z"/><path d="M304,240c-12.944,0-20.63,15.371-23.155,20.422a8,8,0,0,0,14.31,7.156C300.6,256.68,303.969,256,304,256s3.4.68,8.845,11.578a8,8,0,1,0,14.31-7.156C324.63,255.371,316.944,240,304,240Z"/></svg>
